HIERARCHY
ROOT Hips
{
	OFFSET 0.000000 0.000000 0.000000
	CHANNELS 6 Xposition Yposition Zposition Zrotation Yrotation Xrotation 
	JOINT LHipJoint
	{
		OFFSET 0.000000 0.000000 0.000000
		CHANNELS 3 Zrotation Yrotation Xrotation
		JOINT LeftUpLeg
		{
			OFFSET 1.363060 -1.794630 0.839290
			CHANNELS 3 Zrotation Yrotation Xrotation
			JOINT LeftLeg
			{
				OFFSET 2.448110 -6.726130 0.000000
				CHANNELS 3 Zrotation Yrotation Xrotation
				JOINT LeftFoot
				{
					OFFSET 2.562200 -7.039590 0.000000
					CHANNELS 3 Zrotation Yrotation Xrotation
					JOINT LeftToeBase
					{
						OFFSET 0.157640 -0.433110 2.322550
						CHANNELS 3 Zrotation Yrotation Xrotation
						End Site
						{
							OFFSET 0.000000 0.000000 0.000000
						}
					}
				}
			}
		}
	}
	JOINT RHipJoint
	{
		OFFSET 0.000000 0.000000 0.000000
		CHANNELS 3 Zrotation Yrotation Xrotation
		JOINT RightUpLeg
		{
			OFFSET -1.305520 -1.794630 0.839290
			CHANNELS 3 Zrotation Yrotation Xrotation
			JOINT RightLeg
			{
				OFFSET -2.542530 -6.985550 0.000000
				CHANNELS 3 Zrotation Yrotation Xrotation
				JOINT RightFoot
				{
					OFFSET -2.568260 -7.056230 0.000000
					CHANNELS 3 Zrotation Yrotation Xrotation
					JOINT RightToeBase
					{
						OFFSET -0.164730 -0.452590 2.363150
						CHANNELS 3 Zrotation Yrotation Xrotation
						End Site
						{
							OFFSET 0.000000 0.000000 0.000000
						}
					}
				}
			}
		}
	}
	JOINT LowerBack
	{
		OFFSET 0.000000 0.000000 0.000000
		CHANNELS 3 Zrotation Yrotation Xrotation
		JOINT Spine
		{
			OFFSET 0.028270 2.035590 -0.193380
			CHANNELS 3 Zrotation Yrotation Xrotation
			JOINT Spine1
			{
				OFFSET 0.056720 2.048850 -0.042750
				CHANNELS 3 Zrotation Yrotation Xrotation
				JOINT Neck
				{
					OFFSET 0.000000 0.000000 0.000000
					CHANNELS 3 Zrotation Yrotation Xrotation
					JOINT Neck1
					{
						OFFSET -0.054170 1.746240 0.172020
						CHANNELS 3 Zrotation Yrotation Xrotation
						JOINT Head
						{
							OFFSET 0.104070 1.761360 -0.123970
							CHANNELS 3 Zrotation Yrotation Xrotation
							End Site
							{
								OFFSET 0.000000 0.000000 0.000000
							}
						}
					}
				}
				JOINT LeftShoulder
				{
					OFFSET 0.000000 0.000000 0.000000
					CHANNELS 3 Zrotation Yrotation Xrotation
					JOINT LeftArm
					{
						OFFSET 3.362410 1.200890 -0.311210
						CHANNELS 3 Zrotation Yrotation Xrotation
						JOINT LeftForeArm
						{
							OFFSET 4.983000 -0.000000 -0.000000
							CHANNELS 3 Zrotation Yrotation Xrotation
							JOINT LeftHand
							{
								OFFSET 3.483560 -0.000000 -0.000000
								CHANNELS 3 Zrotation Yrotation Xrotation
								JOINT LeftFingerBase
								{
									OFFSET 0.000000 0.000000 0.000000
									CHANNELS 3 Zrotation Yrotation Xrotation
									JOINT LeftHandIndex1
									{
										OFFSET 0.715260 -0.000000 -0.000000
										CHANNELS 3 Zrotation Yrotation Xrotation
										End Site
										{
											OFFSET 0.000000 0.000000 0.000000
										}
									}
								}
								JOINT LThumb
								{
									OFFSET 0.000000 0.000000 0.000000
									CHANNELS 3 Zrotation Yrotation Xrotation
									End Site
									{
										OFFSET 0.000000 0.000000 0.000000
									}
								}
							}
						}
					}
				}
				JOINT RightShoulder
				{
					OFFSET 0.000000 0.000000 0.000000
					CHANNELS 3 Zrotation Yrotation Xrotation
					JOINT RightArm
					{
						OFFSET -3.136600 1.374050 -0.404650
						CHANNELS 3 Zrotation Yrotation Xrotation
						JOINT RightForeArm
						{
							OFFSET -5.241900 -0.000000 -0.000000
							CHANNELS 3 Zrotation Yrotation Xrotation
							JOINT RightHand
							{
								OFFSET -3.444170 -0.000000 -0.000000
								CHANNELS 3 Zrotation Yrotation Xrotation
								JOINT RightFingerBase
								{
									OFFSET 0.000000 0.000000 0.000000
									CHANNELS 3 Zrotation Yrotation Xrotation
									JOINT RightHandIndex1
									{
										OFFSET -0.622530 -0.000000 -0.000000
										CHANNELS 3 Zrotation Yrotation Xrotation
										End Site
										{
											OFFSET 0.000000 0.000000 0.000000
										}
									}
								}
								JOINT RThumb
								{
									OFFSET 0.000000 0.000000 0.000000
									CHANNELS 3 Zrotation Yrotation Xrotation
									End Site
									{
										OFFSET 0.000000 0.000000 0.000000
									}
								}
							}
						}
					}
				}
			}
		}
	}
}
MOTION
Frames: 10
Frame Time: 0.008333
11.704168 17.901792 -21.399193 -1.500675 -4.175111 3.305558 -2.766976 0.648664 1.260384 -14.831260 -6.038403 -21.044786 -1.015208 5.102268 15.082881 0.674718 -4.559112 9.873408 0.453000 -4.317800 -11.972500 0.752298 -1.270627 1.468225 23.717405 -4.109367 7.050029 -2.408694 -9.079952 28.605262 -0.195126 -1.286278 11.623985 -0.181400 2.743000 -7.564000 2.917903 3.091116 8.024875 0.941915 4.448706 2.233213 -2.772678 2.290177 -2.757921 -13.147444 -8.701897 -13.826577 8.661068 -9.842341 15.217777 4.691500 -4.757100 12.127500 -6.588517 0.015106 -1.673979 -82.551474 9.753380 15.405854 13.952617 -20.095745 -2.846007 -1.238255 -2.063450 9.762419 17.286394 20.714676 7.294000 -7.125000 0.000000 0.000000 -11.397300 53.643500 -2.447100 5.147933 1.467438 -0.862108 86.106093 0.409433 20.015770 -17.157910 25.187886 -4.078542 0.361045 -0.111844 6.425513 -15.353911 7.643945 -2.161500 7.125000 0.000000 0.000000 8.069300 -22.007800 4.501200 
11.715068 17.933291 -21.262897 -1.285289 -4.096542 3.100888 -2.787833 0.695411 1.362326 -15.264938 -5.529936 -20.429050 -1.030113 5.004157 14.876754 0.705961 -5.070583 9.674813 0.482800 -4.455700 -12.362300 0.734122 -1.266728 1.415195 23.295818 -4.042909 5.972346 -2.865041 -9.823009 30.999357 -0.307562 -1.473973 13.671224 -0.118400 2.218000 -6.108500 2.696116 3.030895 8.054285 0.907329 4.352989 2.300356 -2.703514 2.240011 -2.681867 -13.070610 -8.707703 -13.966795 8.568312 -9.840361 15.166929 4.632600 -4.754100 12.122500 -6.603758 -0.012020 -1.661888 -82.585222 9.365435 15.519292 13.950417 -20.073744 -2.835179 -1.180137 -2.239327 9.327834 16.375144 22.662397 7.465500 -7.125000 0.000000 0.000000 -13.361900 55.555400 -3.506900 5.156929 1.467417 -0.865552 86.042069 0.205843 20.029731 -17.014363 24.996885 -4.013798 0.350859 -0.104199 6.564753 -14.986925 7.398507 -2.038500 7.125000 0.000000 0.000000 8.352200 -22.282000 4.609500 
11.726867 17.946391 -21.128401 -1.009513 -4.043041 2.961105 -2.816426 0.737925 1.465119 -15.822073 -4.931156 -19.842032 -1.077902 4.791415 14.351934 0.736802 -5.577222 9.569016 0.598300 -4.951700 -13.770900 0.719928 -1.260613 1.362646 22.772410 -4.048369 4.656991 -3.392184 -10.612171 33.620214 -0.415031 -1.675503 15.305418 -0.092000 1.956100 -5.384400 2.411372 2.966043 8.040875 0.855993 4.243728 2.341598 -2.616238 2.182146 -2.624432 -13.143079 -8.704890 -14.287761 8.623019 -9.788914 15.313213 4.671800 -4.721900 12.254600 -6.613831 -0.019089 -1.662127 -82.633946 9.188785 15.967784 14.046901 -20.210260 -2.860868 -0.959319 -2.767809 8.032068 13.406867 28.594894 7.409900 -7.125000 0.000000 0.000000 -20.896900 61.001200 -8.354500 5.158063 1.472597 -0.866282 85.975735 0.053975 19.948361 -16.844880 24.776530 -3.939507 0.332310 -0.105195 6.826628 -14.418633 7.400898 -1.958400 7.125000 0.000000 0.000000 8.778200 -22.300200 4.846300 
11.740267 17.963991 -20.993005 -0.707634 -3.902034 2.820623 -2.845398 0.791676 1.562470 -16.338833 -4.637504 -19.105943 -1.118993 4.594354 13.873995 0.743804 -5.857159 9.462036 0.552900 -4.763500 -13.235100 0.705576 -1.259448 1.316440 22.186261 -4.140780 3.345535 -3.917384 -11.331655 36.103835 -0.596029 -1.572522 17.156863 -0.067500 1.675900 -4.610800 2.119578 2.880585 8.074619 0.799762 4.108144 2.343502 -2.527408 2.108076 -2.660490 -13.273484 -8.687176 -14.440471 8.768558 -9.727135 15.422575 4.764600 -4.686000 12.345600 -6.617657 -0.020185 -1.664642 -82.612435 9.098046 16.390857 14.113570 -20.312901 -2.893656 -1.092855 -2.733485 7.103046 15.553685 28.212772 8.586700 -7.125000 0.000000 0.000000 -18.048000 61.171400 -7.242300 5.154521 1.483200 -0.865648 85.949189 -0.147199 19.712678 -16.664730 24.535779 -3.856800 0.326982 -0.117555 7.199523 -14.322157 7.619844 -2.004100 7.125000 0.000000 0.000000 8.841700 -22.069700 4.929200 
11.753667 17.986390 -20.858708 -0.491634 -3.708454 2.680375 -2.873708 0.853260 1.668893 -16.748744 -4.372296 -18.274166 -1.175521 4.327719 13.207482 0.753023 -6.126438 9.469909 0.518600 -4.615600 -12.815400 0.688102 -1.258546 1.268932 21.735872 -4.125140 1.988797 -4.487933 -12.052281 38.682534 -0.813083 -1.421942 19.126768 -0.041400 1.312600 -3.609300 1.946965 2.804843 8.135347 0.750431 3.997130 2.297627 -2.504030 2.045743 -2.789891 -13.272109 -8.642193 -14.337510 8.767544 -9.680814 15.442834 4.773800 -4.669400 12.327200 -6.605913 -0.031447 -1.666140 -82.583600 9.082671 16.651697 14.263429 -20.525747 -2.967334 -1.087060 -2.649523 6.798976 15.839585 27.062037 8.442200 -7.125000 0.000000 0.000000 -16.799800 60.064600 -6.280900 5.144135 1.482381 -0.873773 85.916819 -0.566891 19.577771 -16.606493 24.456818 -3.828073 0.334832 -0.135456 7.497246 -14.675959 7.979421 -2.155400 7.125000 0.000000 0.000000 8.564300 -21.672700 4.849300 
11.765966 18.009489 -20.728212 -0.270679 -3.502460 2.507284 -2.896933 0.918132 1.771996 -17.142676 -4.183757 -17.402749 -1.218138 4.099218 12.647160 0.757546 -6.387596 9.400559 0.477800 -4.433000 -12.298000 0.668958 -1.261142 1.219812 21.314596 -4.053596 0.691868 -5.083595 -12.741794 41.206415 -0.958238 -1.845506 20.792949 -0.012200 0.714500 -1.963500 1.737045 2.707909 8.208629 0.718508 3.854440 2.291421 -2.422132 1.967586 -2.862744 -13.307333 -8.631024 -14.332381 8.812221 -9.656047 15.414125 4.799500 -4.656200 12.317800 -6.591108 -0.039327 -1.669537 -82.593933 9.053635 16.950998 14.478927 -20.832270 -3.072966 -1.087868 -2.551720 6.557101 16.227768 25.764536 8.294800 -7.125000 0.000000 0.000000 -15.422600 58.812000 -5.286600 5.133692 1.485408 -0.875351 85.818551 -0.832702 19.486441 -16.542655 24.371854 -3.795549 0.349443 -0.167749 7.897163 -15.325441 8.692948 -2.461400 7.125000 0.000000 0.000000 8.060900 -20.883700 4.703900 
11.776966 18.011789 -20.604416 -0.079043 -3.295183 2.376394 -2.918319 0.977075 1.856752 -17.469692 -4.117761 -16.601004 -1.270146 3.837332 11.984734 0.754989 -6.496860 9.529213 0.422000 -4.169300 -11.553500 0.648012 -1.264788 1.170351 20.920234 -4.002090 -0.625293 -5.722653 -13.415354 43.748172 -1.053338 -2.734218 22.258666 -0.004400 -0.426900 1.173000 1.518537 2.608126 8.200248 0.718215 3.705015 2.347981 -2.273375 1.887549 -2.781158 -13.320625 -8.647395 -14.530714 8.770865 -9.637163 15.365491 4.779200 -4.646300 12.335300 -6.588174 -0.059165 -1.663853 -82.619165 8.795621 17.057962 14.592029 -20.979293 -3.134698 -1.164416 -2.290748 6.751710 17.479417 22.618370 8.000400 -7.125000 0.000000 0.000000 -12.117800 55.756800 -3.232600 5.131715 1.484870 -0.877024 85.703108 -0.977031 19.331307 -16.552645 24.390122 -3.799065 0.353630 -0.181670 8.173042 -15.563759 9.015725 -2.595800 7.125000 0.000000 0.000000 7.877800 -20.528500 4.658700 
11.786866 18.031689 -20.482619 0.158859 -3.026144 2.276834 -2.935645 1.031688 1.946834 -17.906228 -3.878478 -15.838803 -1.311359 3.588973 11.366754 0.761665 -6.802723 9.565233 0.375700 -3.936700 -10.898800 0.626716 -1.272314 1.120588 20.471559 -4.042336 -2.005463 -6.375885 -14.043153 46.194111 -1.170626 -3.894402 23.946271 -0.072100 -1.732800 4.767800 1.252056 2.484563 8.191004 0.718881 3.517288 2.372332 -2.098130 1.789775 -2.760991 -13.257966 -8.624489 -14.496347 8.563058 -9.593812 15.212085 4.682100 -4.644800 12.238000 -6.579794 -0.087471 -1.657446 -82.669635 8.613784 17.143381 14.704445 -21.127064 -3.200323 -1.244332 -1.988688 7.071436 18.826514 19.028161 7.412800 -7.125000 0.000000 0.000000 -9.036800 52.110300 -1.592600 5.132580 1.471435 -0.884703 85.527268 -1.222225 19.374170 -16.539848 24.376745 -3.795945 0.342146 -0.175354 7.989856 -15.143820 8.949042 -2.502800 7.125000 0.000000 0.000000 8.189100 -20.622300 4.829000 
11.793266 18.045888 -20.368222 0.426692 -2.613185 2.142691 -2.951710 1.091748 2.040390 -18.364290 -3.668035 -15.004848 -1.360607 3.279952 10.589707 0.771864 -7.192993 9.701990 0.387400 -3.997000 -11.068200 0.606415 -1.280023 1.072576 20.044095 -4.050338 -3.413111 -7.051171 -14.639771 48.622088 -1.316685 -5.056584 25.652687 -0.208800 -2.942000 8.117200 0.937845 2.296392 8.307302 0.716332 3.241390 2.360510 -1.885694 1.645329 -2.869673 -13.377156 -8.626334 -14.461075 8.540873 -9.560838 15.193882 4.697200 -4.644500 12.226900 -6.563452 -0.100947 -1.660867 -82.694659 8.571670 17.609683 14.942675 -21.465902 -3.318389 -1.261299 -1.946943 6.609523 19.402022 18.395270 7.427000 -7.125000 0.000000 0.000000 -8.195200 51.517400 -1.322900 5.125884 1.474751 -0.886275 85.400164 -1.432899 19.237259 -16.480457 24.296265 -3.770651 0.328937 -0.169475 8.047941 -14.711287 8.805520 -2.388400 7.125000 0.000000 0.000000 8.512700 -20.795200 4.990400 
11.799765 18.054088 -20.252926 0.666583 -2.212913 1.916548 -2.963948 1.168794 2.137785 -18.747901 -3.649268 -13.945845 -1.411065 2.949548 9.756171 0.765124 -7.390572 9.738724 0.437400 -4.244000 -11.764200 0.585972 -1.288698 1.027569 19.651292 -4.045856 -4.675966 -7.696750 -15.174679 50.929023 -1.444181 -5.765456 26.806312 -0.199900 -2.879300 7.943000 0.662462 2.133064 8.475579 0.699041 3.005264 2.396754 -1.728416 1.519809 -2.914938 -13.404527 -8.585332 -14.577168 8.582958 -9.484700 15.238841 4.728800 -4.605400 12.265200 -6.555770 -0.121204 -1.657464 -82.581686 8.357493 18.488069 15.073382 -21.649148 -3.382224 -1.306328 -1.961267 5.135571 20.482957 18.208321 7.818200 -7.125000 0.000000 0.000000 -6.961900 51.512300 -1.121200 5.119153 1.482626 -0.887869 85.372443 -1.611957 18.872792 -16.552672 24.398485 -3.801917 0.331753 -0.185458 8.501068 -14.971692 9.161339 -2.532100 7.125000 0.000000 0.000000 8.312400 -20.405300 4.944200 
